<svg xmlns="http://www.w3.org/2000/svg" viewBox="0 0 31.77 42.39"><defs><style>.cls-1{fill:#fff;}</style></defs><g id="Layer_2" data-name="Layer 2"><g id="Capa_1" data-name="Capa 1"><path class="cls-1" d="M17,0l1.1.17A15.56,15.56,0,0,1,27.14,4.7a15.73,15.73,0,0,1,4.22,7.59A15.92,15.92,0,0,1,30.92,21a36.19,36.19,0,0,1-3.79,8A76.43,76.43,0,0,1,17.05,41.75a1.37,1.37,0,0,1-2.32,0A72.44,72.44,0,0,1,3.5,27,27.25,27.25,0,0,1,.21,18.28a14.93,14.93,0,0,1,.4-6.71A15.65,15.65,0,0,1,6.16,3.36,15.67,15.67,0,0,1,14.58.06,1,1,0,0,0,14.81,0Zm6.87,15.88a7.95,7.95,0,1,0-7.95,7.95A8,8,0,0,0,23.83,15.88Z"/></g></g></svg>