<svg xmlns="http://www.w3.org/2000/svg" viewBox="0 0 247.15 47.2"><defs><style>.cls-1{fill:#fff;}</style></defs><g id="Layer_2" data-name="Layer 2"><g id="Capa_1" data-name="Capa 1"><path class="cls-1" d="M56.68,18a6.27,6.27,0,0,1,6.25-6.25H74.77v4H62.93a2.24,2.24,0,0,0-1.63.68A2.21,2.21,0,0,0,60.62,18a2.3,2.3,0,0,0,2.31,2.3h6.91a6.28,6.28,0,0,1,6.25,6.25,6.28,6.28,0,0,1-6.25,6.25H57.35V28.88H69.84a2.18,2.18,0,0,0,1.63-.68,2.31,2.31,0,0,0-1.63-3.94H62.93A6.25,6.25,0,0,1,56.68,18Z"/><path class="cls-1" d="M100.11,22.29a10.53,10.53,0,0,1-21,0,10.53,10.53,0,1,1,21,0ZM83,22.29a6.58,6.58,0,1,0,11.23-4.64A6.59,6.59,0,0,0,83,22.29Z"/><path class="cls-1" d="M103.08,11.77H107V32.82h-3.94Z"/><path class="cls-1" d="M128.36,11.77V32.82h-3.93l-7.5-10.72-2.39-3.41V32.82h-4v-21h3.93L122,22.48l2.4,3.42V11.77Z"/><path class="cls-1" d="M156.33,11.77v4H144.88a2.37,2.37,0,0,0-2.37,2.37v2.23H152v3.94h-9.44v8.56h-3.94V18a6.21,6.21,0,0,1,6.21-6.21Z"/><path class="cls-1" d="M168.12,11.77l8,21.05h-4.22L171,30.38l-.31-.85h-11l-.34.84-1,2.45h-4.24l8.22-21Zm-6.91,13.82h7.94l-.68-1.78-2-5.34-1.22-3.19L164,18.47l-2.08,5.32Z"/><path class="cls-1" d="M183,32.82H179.1v-21h10.19a7.58,7.58,0,0,1,7.57,7.57,7.37,7.37,0,0,1-1,3.75,7.56,7.56,0,0,1-2.64,2.72l-1.1.67.66,1.12,3.08,5.22h-4.58l-3.12-5.28-.38-.64H183ZM183,23h6.25a3.52,3.52,0,0,0,2.56-1.06,3.6,3.6,0,0,0,0-5.12,3.48,3.48,0,0,0-2.56-1.06H183Z"/><path class="cls-1" d="M222.2,11.77V32.82h-3.94V18l-2.4,3.43L211,28.37l-4.85-6.91L203.77,18V32.82h-3.94v-21h4.38l5.72,8.17L211,21.49l1.07-1.55,5.72-8.17Z"/><path class="cls-1" d="M239.13,11.77l8,21.05h-4.22l-1-2.44-.3-.85h-11l-.34.84-.95,2.45h-4.24l8.22-21Zm-6.91,13.82h7.94l-.67-1.78-2-5.34-1.22-3.19L235,18.47l-2.09,5.32Z"/><path class="cls-1" d="M57,41.13a2.56,2.56,0,0,1,2.53-2.53h4.8v1.6h-4.8a.94.94,0,0,0-.93.93.9.9,0,0,0,.27.66.88.88,0,0,0,.66.28h2.8a2.54,2.54,0,0,1,2.54,2.53,2.54,2.54,0,0,1-2.54,2.53h-4.8V45.54h4.8a.91.91,0,0,0,.67-.28,1,1,0,0,0,0-1.32.94.94,0,0,0-.67-.27h-2.8a2.42,2.42,0,0,1-1.78-.74A2.45,2.45,0,0,1,57,41.13Z"/><path class="cls-1" d="M82.92,42.87a4.27,4.27,0,1,1-1.25-3A4.12,4.12,0,0,1,82.92,42.87Zm-6.94,0a2.67,2.67,0,1,0,2.67-2.67A2.68,2.68,0,0,0,76,42.87Z"/><path class="cls-1" d="M99.63,38.6v1.6H94v1.87h3.83v1.6H94v3.46h-1.6V38.6Z"/><path class="cls-1" d="M116.62,38.6v1.6h-2.93v6.93h-1.61V40.2h-2.93V38.6Z"/><path class="cls-1" d="M126.13,47.13V38.6h1.6v6l1-1.39,2-2.8,2,2.8,1,1.39v-6h1.6v8.53h-1.78l-2.31-3.31-.45-.62-.43.62-2.32,3.31Z"/><path class="cls-1" d="M150.38,38.6l3.25,8.53h-1.71l-.39-1-.12-.35H147l-.14.34-.39,1h-1.71l3.33-8.53Zm-2.8,5.6h3.21l-.27-.72-.82-2.16-.49-1.3-.5,1.3-.85,2.16Z"/><path class="cls-1" d="M164.74,47.13h-1.6V38.6h4.13a3.07,3.07,0,0,1,3.07,3.07,3,3,0,0,1-.4,1.52,3.08,3.08,0,0,1-1.08,1.1l-.44.28.26.45,1.26,2.11h-1.86L166.81,45l-.15-.27h-1.92Zm0-4h2.53a1.44,1.44,0,0,0,1-.43,1.42,1.42,0,0,0,.43-1,1.4,1.4,0,0,0-.43-1,1.44,1.44,0,0,0-1-.43h-2.53Z"/><path class="cls-1" d="M187.06,38.6v1.6h-5.6v1.87h3.82v1.6h-3.82v1.87h5.6v1.59h-7.2V38.6Z"/><path class="cls-1" d="M15.73,16.35V21h21V32.61a4.09,4.09,0,0,1-4.1,4.09H10.49V31.46H30.84a.62.62,0,0,0,.62-.62V26.22h-21V14.58a4.09,4.09,0,0,1,4.09-4.09H36.7v5.24H16.35A.62.62,0,0,0,15.73,16.35Z"/><path class="cls-1" d="M0,14.52V47.2H5.24V14.68a9.44,9.44,0,0,1,9.44-9.44h32.5V0H14.52A14.52,14.52,0,0,0,0,14.52Z"/><path class="cls-1" d="M47.17,32.66V10.48H41.93v22a9.44,9.44,0,0,1-9.44,9.44h-22v5.25H32.65A14.53,14.53,0,0,0,47.17,32.66Z"/></g></g></svg>