<svg xmlns="http://www.w3.org/2000/svg" viewBox="0 0 41.88 29.84"><defs><style>.cls-1{fill:#fff;}</style></defs><g id="Layer_2" data-name="Layer 2"><g id="Capa_1" data-name="Capa 1"><path class="cls-1" d="M41.85,3s0-.09,0-.14L29.1,15.18,41.87,27.1c0-.09,0-.17,0-.26V3Z"/><path class="cls-1" d="M27.15,17.07l-5.22,5a1.31,1.31,0,0,1-.94.38,1.36,1.36,0,0,1-.93-.36l-5.21-4.85L2,29.64a3.07,3.07,0,0,0,1,.2H39a3.07,3.07,0,0,0,1.44-.39Z"/><path class="cls-1" d="M21,19.23,40.48.44A3,3,0,0,0,39,0H3A3,3,0,0,0,1.12.7Z"/><path class="cls-1" d="M0,3.46V26.84a2.76,2.76,0,0,0,.13.77L12.82,15.39Z"/></g></g></svg>