<svg xmlns="http://www.w3.org/2000/svg" viewBox="0 0 91.34 73.99"><defs><style>.cls-1{fill:#2d2d2d;}</style></defs><g id="Layer_2" data-name="Layer 2"><g id="Capa_1" data-name="Capa 1"><path class="cls-1" d="M36.69,61.84C40,65.35,39.61,69.65,39.46,74H37.05c0-1.65,0-3.24,0-4.82A7.18,7.18,0,0,0,35.91,65c-.67-1-1.22-2.15-1.93-3.15A2.29,2.29,0,0,1,34,59c1.7-2.8,3.3-5.68,5-8.52a2.61,2.61,0,0,0,.37-2.13,2.34,2.34,0,0,0-1.94-1.76,2.42,2.42,0,0,0-2.6,1.25c-1.14,2-2.26,3.91-3.39,5.87-.67,1.15-1.33,2.32-2,3.46a1.25,1.25,0,0,1-2.37,0,8.72,8.72,0,0,1-1-4.22c0-5.16,0-10.33,0-15.49v-.86c-.11.09-.17.1-.18.14-1.76,3.82-3.59,7.61-5.22,11.49a10.66,10.66,0,0,0-.73,4.05c-.07,6.93,0,13.87,0,20.81V74H17.32v-.81c0-6.93,0-13.87,0-20.81a14.46,14.46,0,0,1,1.35-6.18c1.79-3.87,3.54-7.75,5.37-11.59a13.47,13.47,0,0,1,1.56-2,1.63,1.63,0,0,0,.35-.9c0-7.66,0-15.31,0-23A8.49,8.49,0,0,1,31.91.47,9.48,9.48,0,0,1,34.71,0Q47,0,59.22,0a8.37,8.37,0,0,1,7.44,4.34l-2,1.19C63.11,3.22,61,2.43,58.33,2.45c-7.76.06-15.52,0-23.28,0-4.06,0-6.63,2.58-6.63,6.65V53.48l.16,0,.43-.68c1.23-2.14,2.44-4.28,3.7-6.4a4.9,4.9,0,0,1,9,1.67,14.74,14.74,0,0,1,0,2.4c1-1.22,2.52-1.22,4-1.18,1.18,0,2.36,0,3.54,0a3.7,3.7,0,1,1,0,7.39c-1.55,0-3.09,0-4.63,0a3.7,3.7,0,0,1-4-3.94c0-.09,0-.18,0-.52l-4,6.89c.33,0,.55,0,.76,0H58.93a6.17,6.17,0,0,0,6.49-6.49c0-1.92,0-3.84,0-5.8h2.4a3.85,3.85,0,0,1,.07.49,66.61,66.61,0,0,1-.16,6.93,8.41,8.41,0,0,1-8.47,7.33c-6.12,0-12.24,0-18.35,0h-4Zm10.25-10H44.62A1.25,1.25,0,0,0,43.23,53a1.23,1.23,0,0,0,1.36,1.24q2.31,0,4.62,0a1.25,1.25,0,0,0,1.4-1.21c0-.75-.54-1.23-1.44-1.25Z"/><path class="cls-1" d="M71.69,6.11a19.75,19.75,0,0,1,3.19,39.23A19.36,19.36,0,0,1,59,41.05a1.37,1.37,0,0,0-1.26-.31l-6.88,1.31c-.63.11-1.25.17-1.68-.44A1.34,1.34,0,0,1,49.23,40c1.24-2.07,2.45-4.16,3.7-6.22a1.3,1.3,0,0,0,.12-1.21A19.69,19.69,0,0,1,69.31,6.3C70.1,6.21,70.89,6.17,71.69,6.11ZM52.6,39.19c1.9-.35,3.62-.62,5.32-1a2.26,2.26,0,0,1,2.23.61,16.89,16.89,0,0,0,9.55,4.25A17.26,17.26,0,1,0,55.59,32.33a2.08,2.08,0,0,1-.16,2.09C54.48,36,53.6,37.51,52.6,39.19Z"/><path class="cls-1" d="M42.23,16.36l1.92,1.93c-.46.39-.91.81-1.39,1.18s-.5.67-.22,1.22A6.17,6.17,0,1,1,39.83,18a.76.76,0,0,0,1.15-.2C41.37,17.29,41.8,16.85,42.23,16.36Zm-3.49,3.83a3.69,3.69,0,0,0-4.8,1.27,3.64,3.64,0,0,0,.74,4.79,3.68,3.68,0,0,0,4.79,0c1.3-1.1,1.67-3.3.75-4.37l-3.56,3.6L35,23.76Z"/><path class="cls-1" d="M51.82,5V7.36H42.05V5Z"/><path class="cls-1" d="M50.59,19.78v2.37H45.73V19.78Z"/><path class="cls-1" d="M50.58,27.11H45.74v-2.4h4.84Z"/><path class="cls-1" d="M37.12,5h2.34v2.4H37.12Z"/><path class="cls-1" d="M66.68,18.5a5.49,5.49,0,0,1,1.58-4.86,4.85,4.85,0,0,1,3.36-1.3c3,0,4.59,2,5,6.16h3.27c1.2,0,1.61.42,1.61,1.63q0,7.08,0,14.17a3.7,3.7,0,0,1-4,3.93q-5.89,0-11.79,0a3.72,3.72,0,0,1-4-4V20.14c0-1.22.41-1.63,1.6-1.64ZM74.05,21h-5v2.37H66.63V21h-2.4v9.77h14.7V21H76.5v2.36H74.05ZM64.19,33.33c0,.44,0,.82,0,1.2a1.18,1.18,0,0,0,1.22,1.23c4.1,0,8.21,0,12.31,0A1.19,1.19,0,0,0,79,34.56c0-.4,0-.8,0-1.23ZM74,18.47c.15-1.33.09-2.55-1.16-3.31a2.31,2.31,0,0,0-2.61.06c-1.19.79-1.21,2-1.07,3.25Z"/><path class="cls-1" d="M17.8,13.59H10.09a1.28,1.28,0,0,1-1.45-1.08A1.25,1.25,0,0,1,10,11.13c2.27,0,4.53,0,6.79,0,2.95,0,5.91,0,8.86,0,.85,0,1.37.4,1.46,1.07s-.5,1.39-1.46,1.39Z"/><path class="cls-1" d="M15.35,28.39H7.72c-1,0-1.54-.45-1.55-1.22s.55-1.24,1.52-1.24H23.1c1,0,1.55.45,1.56,1.21s-.56,1.25-1.53,1.25Z"/><path class="cls-1" d="M10.45,21C8.7,21,7,21,5.2,21c-1,0-1.52-.49-1.5-1.26s.56-1.2,1.49-1.2q5.28,0,10.56,0c.95,0,1.52.49,1.5,1.26S16.68,21,15.77,21C14,21,12.22,21,10.45,21Z"/><path class="cls-1" d="M24.08,21c-1,0-1.95,0-2.93,0s-1.39-.48-1.41-1.19.53-1.27,1.42-1.27c1.92,0,3.85,0,5.78,0a1.25,1.25,0,0,1,1.42,1.19c0,.75-.54,1.26-1.42,1.27S25,21,24.08,21Z"/><path class="cls-1" d="M4.26,13.58a5.3,5.3,0,0,1-.69,0,1.23,1.23,0,0,1,0-2.44,10.08,10.08,0,0,1,1.23,0,1.23,1.23,0,1,1,0,2.46H4.26Z"/><path class="cls-1" d="M1.81,28.38a5.45,5.45,0,0,1-.7,0A1.22,1.22,0,0,1,0,27.12a1.18,1.18,0,0,1,1.11-1.18,8.41,8.41,0,0,1,1.23,0,1.23,1.23,0,1,1,0,2.46H1.81Z"/></g></g></svg>