<svg xmlns="http://www.w3.org/2000/svg" viewBox="0 0 80.03 79.95"><defs><style>.cls-1{fill:#2d2d2d;}</style></defs><g id="Layer_2" data-name="Layer 2"><g id="Capa_1" data-name="Capa 1"><path class="cls-1" d="M41.29,0H74.82V25.79h2.4A2.59,2.59,0,0,1,80,28.61v1.85c0,2.1-1,3.07-3,3.07H29.39c.94,4.64-.52,8.31-4.25,11.2A19.24,19.24,0,0,1,31.8,48.4a18.84,18.84,0,0,1,6.91,14.52c.09,5.65,0,11.29,0,17H3.88v-.83c0-3.11,0-6.23,0-9.35A1,1,0,0,0,3.52,69C.57,67.3-.3,64.69.09,61.51c1-8.35,5.63-13.81,13.44-16.83A10.49,10.49,0,0,1,9.35,33.53H2.78A2.59,2.59,0,0,1,0,30.75q0-1.17,0-2.34a2.59,2.59,0,0,1,2.61-2.62H5.15V0H38.72V25.75h2.57ZM7.81,2.6V25.75h7.7V20.69H28.42v5h7.67V2.6H28.4V7.67H15.48V2.6ZM72.23,25.75V2.6h-7.7V7.67H51.62V2.61H44V25.75h7.7V20.69H64.56v5.06ZM11.64,51.63l.44,0c4.17,0,8.34,0,12.5,0a1.53,1.53,0,0,1,1,.46c2.09,2.05,4.14,4.14,6.23,6.19a1.63,1.63,0,0,1,.53,1.26c0,5.65,0,11.29,0,16.94v.89h3.87V76.6c0-4.41,0-8.82,0-13.22a16.78,16.78,0,1,0-33.56-.26,3.86,3.86,0,0,0,3.91,4c1.34,0,2.69,0,4,0,2.69,0,5.38,0,8.06,0a1.92,1.92,0,0,0,1.82-2.84,2,2,0,0,0-1.95-1H7.8v-2.6h3.84Zm2.58,9c1.6,0,3.13,0,4.65,0A4.52,4.52,0,0,1,23.2,64.5a4.46,4.46,0,0,1-3,4.88,6.37,6.37,0,0,1-1.9.27c-1.35,0-2.71,0-4.07,0v7.69H29.64V60.61H23.23V54.24h-9Zm5.12-32.27a7.74,7.74,0,1,0,7.77,7.71A7.77,7.77,0,0,0,19.34,28.37Zm7,0c.55.69,1.11,1.27,1.54,1.94a1.19,1.19,0,0,0,1.16.61H77.41V28.41ZM6.51,69.7v7.66h5.06V69.7Zm5.84-41.27H2.63V31c2.53,0,5,0,7.51,0a.82.82,0,0,0,.5-.31C11.21,29.92,11.76,29.19,12.35,28.43ZM18.09,5.09h7.68V2.63H18.09Zm36.14,0H61.9V2.63H54.23ZM25.79,23.27H18.14v2.48h7.65Zm28.47,0v2.49H61.9V23.25ZM27.59,58l-1.7-1.83V58Z"/><path class="cls-1" d="M80,49.08V80H41.38V49.08ZM54.24,51.66H44V77.34H77.41V51.65H67.09v5.07H54.24ZM64.5,54.14V51.65H56.86v2.49Z"/><path class="cls-1" d="M74.83,67.14v2.48H62V67.14Z"/><path class="cls-1" d="M62,72.28H64.5v2.51H62Z"/><path class="cls-1" d="M67.17,72.29h2.48v2.49H67.17Z"/><path class="cls-1" d="M72.32,74.77V72.29H74.8v2.48Z"/></g></g></svg>