<svg xmlns="http://www.w3.org/2000/svg" viewBox="0 0 81.93 82.1"><defs><style>.cls-1{fill:#2d2d2d;}</style></defs><g id="Layer_2" data-name="Layer 2"><g id="Capa_1" data-name="Capa 1"><path class="cls-1" d="M26.06,82.1c-3-.45-5.16-2.26-7.13-4.4-.86-1-1.8-1.82-2.71-2.73L3.07,61.82C-1,57.74-1,52.16,3,48.08l5.5-5.5,9.85,9.84-2.9,2.83c-.74.73-1.48,1.46-2.2,2.21a1.27,1.27,0,0,0-.14,1.81c1.48,1.53,3,3,4.59,4.56.21-.58.38-1.11.58-1.62a9.09,9.09,0,0,1,7.22-6.1c2.68-.5,5.36-1,8-1.46.2,0,.41-.1.87-.22a4.62,4.62,0,0,0-.7-.9A13.47,13.47,0,0,1,28,45.44a1.08,1.08,0,0,0-.56-.64,5.32,5.32,0,0,1-3.76-5.37c0-3,0-5.93,0-8.89A17.19,17.19,0,0,1,58,28.77c.25,3.35.12,6.73.14,10.1,0,2.35,0,4.7,0,7.05,0,2.75-1.64,4.48-4.37,4.38a3.79,3.79,0,0,0-3.64,1.49,12.57,12.57,0,0,1-2.15,1.78,4.81,4.81,0,0,0-.64.89l4.6.86c1.65.3,3.32.54,5,.94a8.69,8.69,0,0,1,6.46,5.67c1.14,3.05,2.1,6.16,3.13,9.25a1.53,1.53,0,0,1,0,.31H38.37l-.09.17,2.06,1.73c-2.76,2.47-5.28,4.79-7.86,7A9.33,9.33,0,0,1,28.3,82.1Zm4.28-18.41c1.57,1.58,3.09,3.08,4.58,4.61a1.66,1.66,0,0,0,1.32.56q12.82,0,25.65,0h1c-.66-2-1.24-3.88-1.91-5.73a6.48,6.48,0,0,0-5.24-4.42c-2.15-.4-4.35-.61-6.44-1.21a3.87,3.87,0,0,0-4.61,1.45,50.36,50.36,0,0,1-3.77,3.83c-.25-.24-.45-.41-.63-.6-1.57-1.57-3.13-3.15-4.72-4.69a1.32,1.32,0,0,0-1-.32c-2.9.49-5.79,1-8.67,1.56a6.52,6.52,0,0,0-5.11,4.36c-.28.78-.51,1.58-.79,2.35a.78.78,0,0,0,.22,1c.75.69,1.44,1.43,2.16,2.15,1,.94,1.51,1,2.53,0ZM40.86,27.21a18.69,18.69,0,0,0,5.9,4.6,16.82,16.82,0,0,0,7.36,1.31v1.47l1.15.44a45,45,0,0,0-.05-6.68,13.76,13.76,0,0,0-10.16-11.8c-5.75-1.74-10.82-.2-15,4.14-3.88,4.07-4.08,9.13-3.7,14.38l1.24-.49c0-.24,0-.48,0-.71s0-.47.05-.79C33.1,33.41,37.4,31.29,40.86,27.21ZM30.28,35.72c0,2.38-.09,4.68,0,7a10.18,10.18,0,0,0,6,9.2A10.21,10.21,0,0,0,47,51c.25-.17.46-.37.69-.55l-.09-.17H40.93V47.66h.94c2.49,0,5,0,7.46,0A1,1,0,0,0,50.41,47a10.86,10.86,0,0,0,1.05-4.65c0-2,0-3.95,0-5.93,0-.54-.18-.74-.72-.79a15.22,15.22,0,0,1-6.49-2.12c-1.18-.7-2.28-1.56-3.49-2.39A17.39,17.39,0,0,1,30.28,35.72Zm-25,13.93a6.61,6.61,0,0,0-.63,10c.44.46.9.91,1.36,1.36q8.19,8.19,16.38,16.37a6.64,6.64,0,0,0,10-.48l-6-6.06c-2,1.58-4,1.46-5.86-.41-3-3-6-6-8.94-9a5.56,5.56,0,0,1-1.24-2,3.8,3.8,0,0,1,.94-3.8ZM34.68,75l1.52-1.44-6-6.08-1.59,1.44ZM7.31,47.6l5.93,6,1.29-1.22-6-6Zm29.93,7.53,3.64,3.65,3.72-3.71A13.35,13.35,0,0,1,37.24,55.13ZM55.32,44.34c-.52.28-1.22.42-1.46.83a11.25,11.25,0,0,0-.74,2.41C55.22,47.87,55.78,47.07,55.32,44.34ZM27.6,37.65a2,2,0,0,0-1.25,1.77,2.28,2.28,0,0,0,1.25,2.43ZM54.15,42a2.59,2.59,0,0,0,1.25-2.62,2.42,2.42,0,0,0-1.25-1.85Z"/><path class="cls-1" d="M61.59,26.49,63,18.55H60c-3,0-4.61-1.56-4.61-4.57,0-3.21,0-6.42,0-9.62A4,4,0,0,1,59.76,0H77.64a4,4,0,0,1,4.27,4.23q0,5.06,0,10.1c0,2.58-1.65,4.34-4.22,4.17a9.6,9.6,0,0,0-6.32,1.86c-2.92,2-6,3.8-9,5.68C62.17,26.17,62,26.28,61.59,26.49ZM65.23,21a.9.9,0,0,0,.24,0c1.59-1,3.26-1.86,4.74-3a9.8,9.8,0,0,1,7.36-2.11c1.26.14,1.71-.42,1.71-1.72q0-4.85,0-9.7c0-1.35-.41-1.78-1.76-1.78H59.81c-1.3,0-1.7.42-1.7,1.74q0,4.84,0,9.69c0,1.41.39,1.79,1.82,1.79h6.16Z"/><path class="cls-1" d="M7.57,32.74l3.5-2.08,1.35,2.26L4.67,37.57,0,29.83l2.26-1.37,2.48,4.1C10.14,10.19,33.2-.52,51.83,5.69l-.73,2.4C30.48,1.57,11.16,15.94,7.57,32.74Z"/><path class="cls-1" d="M73.5,29.87l-2.35,3.9-2.27-1.35,4.65-7.75,7.74,4.64-1.35,2.28-3.8-2.27c3.78,12.81,1.65,24.44-6.37,35.07-.2-.14-.31-.2-.41-.28l-1.66-1.35C75.15,52.85,77.15,42,73.5,29.87Z"/><path class="cls-1" d="M76.58,5.36V7.89H60.78V5.36Z"/><path class="cls-1" d="M71.28,10.64V13.2H60.77V10.64Z"/><path class="cls-1" d="M76.57,13.21H74V10.66h2.53Z"/></g></g></svg>