<svg xmlns="http://www.w3.org/2000/svg" viewBox="0 0 73.3 71"><defs><style>.cls-1{fill:#2d2d2d;}</style></defs><g id="Layer_2" data-name="Layer 2"><g id="Capa_1" data-name="Capa 1"><path class="cls-1" d="M62.31,26.93h5.77c1.11,0,1.49.37,1.59,1.49q1.18,13.48,2.39,27,.61,6.93,1.22,13.86C73.4,70.5,73,71,71.71,71H6.28A6.08,6.08,0,0,1,0,64.72Q0,35.5,0,6.28A6.08,6.08,0,0,1,6.29,0H35.23a6.08,6.08,0,0,1,6.31,6.31q0,9.79,0,19.58v1h3.66c0-1.22,0-2.46,0-3.7a8.54,8.54,0,0,1,17.08-.28C62.34,24.21,62.31,25.53,62.31,26.93ZM39.05,63.62V7.41H2.49V63.62Zm2.5-34.2v1q0,17.05,0,34.11a6.71,6.71,0,0,1-1,3.64,2,2,0,0,0-.15.33H70.75Q69,48.91,67.31,29.43h-5v.88c0,1.3,0,2.6,0,3.9a1.21,1.21,0,0,1-1.22,1.29,1.23,1.23,0,0,1-1.21-1.31c0-.86,0-1.73,0-2.6V29.42H47.66c0,1.57,0,3.09,0,4.61,0,.91-.47,1.46-1.2,1.47s-1.22-.55-1.24-1.44c0-.56,0-1.12,0-1.68v-3ZM59.87,26.9c0-1.3,0-2.54,0-3.79a6.12,6.12,0,0,0-5.57-5.95,6,6,0,0,0-6.48,5,32.51,32.51,0,0,0,0,4.74ZM2.78,4.86H38.83a3.83,3.83,0,0,0-.17-.46,3.75,3.75,0,0,0-3.54-1.95H6.42c-.2,0-.41,0-.61,0A3.38,3.38,0,0,0,2.78,4.86Zm0,61.28c0,.09,0,.14,0,.19a1.31,1.31,0,0,0,.12.27,3.76,3.76,0,0,0,3.54,2H35.74a3.38,3.38,0,0,0,3-2.4Z"/><path class="cls-1" d="M9.71,25.71a8.6,8.6,0,0,1,17.2,0c.82,0,1.66,0,2.48,0,.15,0,.34-.32.39-.53.28-1.06.53-2.12.76-3.19a1.28,1.28,0,0,1,1.38-1.15c1.12,0,2.24,0,3.36,0A1.22,1.22,0,0,1,36.65,22a1.24,1.24,0,0,1-1.36,1.23c-.72,0-1.43,0-2.14,0a.8.8,0,0,0-.59.47c-1,4.65-2,9.32-2.91,14a.79.79,0,0,0,.18.64c2.85,2.3,2.58,5.2-.59,6.78v2.6c.4,0,.85,0,1.3,0A1.2,1.2,0,0,1,31.76,49a1.22,1.22,0,0,1-1.2,1.23c-.13,0-.26,0-.39,0q-10.73,0-21.45,0a3.67,3.67,0,1,1,0-7.34H27.49a4.76,4.76,0,0,0,.76,0,1.22,1.22,0,0,0,0-2.41,4,4,0,0,0-.77,0H9.09c-1.3,0-1.58-.21-1.84-1.52Q6.08,33.12,5,27.35A1.25,1.25,0,0,1,6.3,25.71C7.44,25.7,8.58,25.71,9.71,25.71Zm14.73.05a6.11,6.11,0,1,0-6.18,6.07A6.13,6.13,0,0,0,24.44,25.76ZM12.15,45.32V47.7h9.92V45.32Zm-.68-13.49a3.44,3.44,0,0,0-.1-1c-.37-.86-.78-1.7-1.2-2.53a.48.48,0,0,0-.38-.16c-.71,0-1.41,0-2.18,0,.23,1.17.43,2.26.67,3.35a.54.54,0,0,0,.41.3C9.6,31.84,10.51,31.83,11.47,31.83Zm17.58-3.67a4.55,4.55,0,0,1-.75,0c-1.2-.2-2.1.07-2.37,1.44,0,.24-.27.43-.36.67-.17.48-.3,1-.49,1.57,1.09,0,2,0,2.9,0a.52.52,0,0,0,.4-.32C28.62,30.41,28.82,29.32,29.05,28.16Zm-12,6.17h-2.9l.38,3.58h2.52Zm5.39,0H19.59v3.55h2.52Zm-13.63,0c.22,1.11.41,2.18.65,3.24a.64.64,0,0,0,.43.37c.7,0,1.4,0,2.17,0l-.37-3.63ZM24.57,38c.8,0,1.52,0,2.25,0a.49.49,0,0,0,.34-.3c.23-1.09.44-2.18.66-3.29H24.93ZM9.77,46.52a1.22,1.22,0,1,0-1.2,1.22A1.23,1.23,0,0,0,9.77,46.52Zm17.11,0a1.22,1.22,0,1,0-1.17,1.25A1.25,1.25,0,0,0,26.88,46.49Z"/><path class="cls-1" d="M36.65,48.94a1.22,1.22,0,1,1-1.24-1.19A1.22,1.22,0,0,1,36.65,48.94Z"/><path class="cls-1" d="M47.65,39.17a1.22,1.22,0,0,1-2.43,0,1.22,1.22,0,1,1,2.43,0Z"/><path class="cls-1" d="M62.31,39.17A1.22,1.22,0,1,1,61.09,38,1.22,1.22,0,0,1,62.31,39.17Z"/><path class="cls-1" d="M17.16,26.43l2.54-2.6c.68-.68,1.39-.75,1.93-.2s.47,1.25-.21,1.94c-1.07,1.08-2.15,2.17-3.23,3.24a1.29,1.29,0,0,1-2.16,0c-.29-.29-.58-.57-.86-.87a1.23,1.23,0,1,1,1.65-1.81Z"/></g></g></svg>