<svg xmlns="http://www.w3.org/2000/svg" viewBox="0 0 106.92 106.92"><defs><style>.cls-1{isolation:isolate;}.cls-2{fill:#1f8a25;mix-blend-mode:multiply;}</style></defs><g class="cls-1"><g id="Layer_2" data-name="Layer 2"><g id="Capa_1" data-name="Capa 1"><path class="cls-2" d="M70,59.2c-.89-.44-5.25-2.6-6.07-2.88a1.7,1.7,0,0,0-2.19.66,38.94,38.94,0,0,1-2.38,3.16,1.92,1.92,0,0,1-2.15.33,22.32,22.32,0,0,1-7.15-4.4,27.21,27.21,0,0,1-4.94-6.15c-.52-.89,0-1.41.36-1.9s.87-1,1.32-1.47a5.35,5.35,0,0,0,1-1.39,1.82,1.82,0,0,0-.13-1.65c-.21-.45-2-4.83-2.74-6.6-.59-1.41-1-1.47-1.93-1.5-.31,0-.65,0-1,0a4.41,4.41,0,0,0-3.11,1.09,9.74,9.74,0,0,0-3.12,7.42c0,4.38,3.19,8.61,3.62,9.2s6.22,9.69,15.18,13.4c7,2.9,9.08,2.63,10.67,2.29,2.33-.5,5.25-2.22,6-4.3a7.47,7.47,0,0,0,.52-4.23C71.51,59.87,70.92,59.65,70,59.2Z"/><path class="cls-2" d="M53.46,0a53.46,53.46,0,1,0,53.46,53.46A53.45,53.45,0,0,0,53.46,0Zm0,82.39a30.25,30.25,0,0,1-16.77-5L25,81.1l3.79-11.33A30.46,30.46,0,0,1,53.45,21.43h0a30.48,30.48,0,0,1,0,61Z"/></g></g></g></svg>